<?xml version="1.0" encoding="UTF-8" standalone="no"?>
<svg
   width="2048"
   height="2048"
   viewBox="0 0 2048 2048"
   role="img"
   aria-labelledby="title desc"
   version="1.1"
   id="svg80"
   sodipodi:docname="empyris_standalone_emblem_vector.svg"
   inkscape:version="1.4.3 (0d15f75042, 2025-12-25)"
   xmlns:inkscape="http://www.inkscape.org/namespaces/inkscape"
   xmlns:sodipodi="http://sodipodi.sourceforge.net/DTD/sodipodi-0.dtd"
   xmlns="http://www.w3.org/2000/svg"
   xmlns:svg="http://www.w3.org/2000/svg">
  <sodipodi:namedview
     id="namedview80"
     pagecolor="#ffffff"
     bordercolor="#000000"
     borderopacity="0.25"
     inkscape:showpageshadow="2"
     inkscape:pageopacity="0.0"
     inkscape:pagecheckerboard="0"
     inkscape:deskcolor="#d1d1d1"
     inkscape:zoom="0.2121582"
     inkscape:cx="652.81473"
     inkscape:cy="1152.4419"
     inkscape:window-width="2048"
     inkscape:window-height="1078"
     inkscape:window-x="0"
     inkscape:window-y="0"
     inkscape:window-maximized="1"
     inkscape:current-layer="svg80" />
  <title
     id="title">EMPYRIS standalone emblem vector</title>
  <desc
     id="desc">Pure vector SVG emblem on ivory background; no embedded raster images.</desc>
  <defs
     id="defs10">
    <linearGradient
       id="emberGold"
       x1="0"
       y1="0"
       x2="0"
       y2="1">
      <stop
         offset="0"
         stop-color="#E7BE74"
         id="stop1" />
      <stop
         offset="0.48"
         stop-color="#D4A25C"
         id="stop2" />
      <stop
         offset="1"
         stop-color="#A96B2C"
         id="stop3" />
    </linearGradient>
    <linearGradient
       id="deepGold"
       x1="0"
       y1="0"
       x2="1"
       y2="1">
      <stop
         offset="0"
         stop-color="#E2B76A"
         id="stop4" />
      <stop
         offset="1"
         stop-color="#8E5525"
         id="stop5" />
    </linearGradient>
    <linearGradient
       id="goldHighlight"
       x1="0"
       y1="0"
       x2="1"
       y2="0">
      <stop
         offset="0"
         stop-color="#F0D094"
         id="stop6" />
      <stop
         offset="1"
         stop-color="#C98D42"
         id="stop7" />
    </linearGradient>
    <linearGradient
       id="obsidianGrad"
       x1="0"
       y1="0"
       x2="0"
       y2="1">
      <stop
         offset="0"
         stop-color="#2B2F36"
         id="stop8" />
      <stop
         offset="0.45"
         stop-color="#161A20"
         id="stop9" />
      <stop
         offset="1"
         stop-color="#0D0F13"
         id="stop10" />
    </linearGradient>
  </defs>
  <g
     id="emblem"
     transform="translate(0,18)">
    <g
       id="celestial-halo"
       fill="none"
       stroke-linecap="round"
       stroke-linejoin="round">
      <path
         d="M 511.94 761.22 A 565 565 0 0 1 1024 435"
         stroke="#D4A25C"
         stroke-width="5.2"
         opacity="0.96"
         id="path10" />
      <path
         d="M 1024 435 A 565 565 0 0 1 1536.06 761.22"
         stroke="#D4A25C"
         stroke-width="5.2"
         opacity="0.96"
         id="path11" />
      <path
         d="M 511.94 1238.78 A 565 565 0 0 1 500.14 788.35"
         stroke="#D4A25C"
         stroke-width="3.4"
         opacity="0.46"
         id="path12" />
      <path
         d="M 1547.86 788.35 A 565 565 0 0 1 1536.06 1238.78"
         stroke="#D4A25C"
         stroke-width="3.4"
         opacity="0.46"
         id="path13" />
    </g>
    <g
       id="sunburst">
      <line
         x1="1024"
         y1="1160"
         x2="584.44"
         y2="795.03"
         stroke="#E7C58F"
         stroke-width="1.6"
         opacity="0.42"
         stroke-linecap="round"
         id="line13" />
      <line
         x1="1024"
         y1="1160"
         x2="608.27"
         y2="750.21"
         stroke="#E7C58F"
         stroke-width="1.6"
         opacity="0.42"
         stroke-linecap="round"
         id="line14" />
      <line
         x1="1024"
         y1="1160"
         x2="636.66"
         y2="708.12"
         stroke="#E7C58F"
         stroke-width="1.6"
         opacity="0.42"
         stroke-linecap="round"
         id="line15" />
      <line
         x1="1024"
         y1="1160"
         x2="669.29"
         y2="669.23"
         stroke="#E7C58F"
         stroke-width="1.6"
         opacity="0.42"
         stroke-linecap="round"
         id="line16" />
      <line
         x1="1024"
         y1="1160"
         x2="705.81"
         y2="633.97"
         stroke="#E7C58F"
         stroke-width="1.6"
         opacity="0.42"
         stroke-linecap="round"
         id="line17" />
      <line
         x1="1024"
         y1="1160"
         x2="745.82"
         y2="602.71"
         stroke="#E7C58F"
         stroke-width="1.6"
         opacity="0.42"
         stroke-linecap="round"
         id="line18" />
      <line
         x1="1024"
         y1="1160"
         x2="788.87"
         y2="575.81"
         stroke="#E7C58F"
         stroke-width="1.6"
         opacity="0.42"
         stroke-linecap="round"
         id="line19" />
      <line
         x1="1024"
         y1="1160"
         x2="834.5"
         y2="553.56"
         stroke="#E7C58F"
         stroke-width="1.6"
         opacity="0.42"
         stroke-linecap="round"
         id="line20" />
      <line
         x1="1024"
         y1="1160"
         x2="882.2"
         y2="536.19"
         stroke="#E7C58F"
         stroke-width="1.6"
         opacity="0.42"
         stroke-linecap="round"
         id="line21" />
      <line
         x1="1024"
         y1="1160"
         x2="931.46"
         y2="523.91"
         stroke="#E7C58F"
         stroke-width="1.6"
         opacity="0.42"
         stroke-linecap="round"
         id="line22" />
      <line
         x1="1024"
         y1="1160"
         x2="981.73"
         y2="516.85"
         stroke="#E7C58F"
         stroke-width="1.6"
         opacity="0.42"
         stroke-linecap="round"
         id="line23" />
      <line
         x1="1024"
         y1="1160"
         x2="1032.46"
         y2="515.07"
         stroke="#E7C58F"
         stroke-width="1.6"
         opacity="0.42"
         stroke-linecap="round"
         id="line24" />
      <line
         x1="1024"
         y1="1160"
         x2="1083.11"
         y2="518.62"
         stroke="#E7C58F"
         stroke-width="1.6"
         opacity="0.42"
         stroke-linecap="round"
         id="line25" />
      <line
         x1="1024"
         y1="1160"
         x2="1133.1"
         y2="527.43"
         stroke="#E7C58F"
         stroke-width="1.6"
         opacity="0.42"
         stroke-linecap="round"
         id="line26" />
      <line
         x1="1024"
         y1="1160"
         x2="1181.9"
         y2="541.42"
         stroke="#E7C58F"
         stroke-width="1.6"
         opacity="0.42"
         stroke-linecap="round"
         id="line27" />
      <line
         x1="1024"
         y1="1160"
         x2="1228.97"
         y2="560.44"
         stroke="#E7C58F"
         stroke-width="1.6"
         opacity="0.42"
         stroke-linecap="round"
         id="line28" />
      <line
         x1="1024"
         y1="1160"
         x2="1273.79"
         y2="584.27"
         stroke="#E7C58F"
         stroke-width="1.6"
         opacity="0.42"
         stroke-linecap="round"
         id="line29" />
      <line
         x1="1024"
         y1="1160"
         x2="1315.88"
         y2="612.66"
         stroke="#E7C58F"
         stroke-width="1.6"
         opacity="0.42"
         stroke-linecap="round"
         id="line30" />
      <line
         x1="1024"
         y1="1160"
         x2="1354.77"
         y2="645.29"
         stroke="#E7C58F"
         stroke-width="1.6"
         opacity="0.42"
         stroke-linecap="round"
         id="line31" />
      <line
         x1="1024"
         y1="1160"
         x2="1390.03"
         y2="681.81"
         stroke="#E7C58F"
         stroke-width="1.6"
         opacity="0.42"
         stroke-linecap="round"
         id="line32" />
      <line
         x1="1024"
         y1="1160"
         x2="1421.29"
         y2="721.82"
         stroke="#E7C58F"
         stroke-width="1.6"
         opacity="0.42"
         stroke-linecap="round"
         id="line33" />
      <line
         x1="1024"
         y1="1160"
         x2="1448.19"
         y2="764.87"
         stroke="#E7C58F"
         stroke-width="1.6"
         opacity="0.42"
         stroke-linecap="round"
         id="line34" />
      <line
         x1="1024"
         y1="1160"
         x2="1470.44"
         y2="810.5"
         stroke="#E7C58F"
         stroke-width="1.6"
         opacity="0.42"
         stroke-linecap="round"
         id="line35" />
      <circle
         cx="518.04"
         cy="835.6"
         r="8"
         fill="#D4A25C"
         opacity="0.92"
         id="circle35" />
      <circle
         cx="582.95"
         cy="702.51"
         r="8"
         fill="#D4A25C"
         opacity="0.92"
         id="circle36" />
      <circle
         cx="696.47"
         cy="580.78"
         r="8"
         fill="#D4A25C"
         opacity="0.92"
         id="circle37" />
      <circle
         cx="842.05"
         cy="500.08"
         r="8"
         fill="#D4A25C"
         opacity="0.92"
         id="circle38" />
      <circle
         cx="1205.95"
         cy="500.08"
         r="8"
         fill="#D4A25C"
         opacity="0.92"
         id="circle39" />
      <circle
         cx="1351.53"
         cy="580.78"
         r="8"
         fill="#D4A25C"
         opacity="0.92"
         id="circle40" />
      <circle
         cx="1465.05"
         cy="702.51"
         r="8"
         fill="#D4A25C"
         opacity="0.92"
         id="circle41" />
      <circle
         cx="1529.96"
         cy="835.6"
         r="8"
         fill="#D4A25C"
         opacity="0.92"
         id="circle42" />
      <circle
         cx="525.9"
         cy="956.42"
         r="3.3"
         fill="#D4A25C"
         opacity="0.9"
         id="circle43" />
      <circle
         cx="536.81"
         cy="887.52"
         r="3.3"
         fill="#D4A25C"
         opacity="0.9"
         id="circle44" />
      <circle
         cx="557.21"
         cy="820.82"
         r="3.3"
         fill="#D4A25C"
         opacity="0.9"
         id="circle45" />
      <circle
         cx="586.69"
         cy="757.6"
         r="3.3"
         fill="#D4A25C"
         opacity="0.9"
         id="circle46" />
      <circle
         cx="624.68"
         cy="699.09"
         r="3.3"
         fill="#D4A25C"
         opacity="0.9"
         id="circle47" />
      <circle
         cx="1423.32"
         cy="699.09"
         r="3.3"
         fill="#D4A25C"
         opacity="0.9"
         id="circle48" />
      <circle
         cx="1461.31"
         cy="757.6"
         r="3.3"
         fill="#D4A25C"
         opacity="0.9"
         id="circle49" />
      <circle
         cx="1490.79"
         cy="820.82"
         r="3.3"
         fill="#D4A25C"
         opacity="0.9"
         id="circle50" />
      <circle
         cx="1511.19"
         cy="887.52"
         r="3.3"
         fill="#D4A25C"
         opacity="0.9"
         id="circle51" />
      <circle
         cx="1522.1"
         cy="956.42"
         r="3.3"
         fill="#D4A25C"
         opacity="0.9"
         id="circle52" />
      <circle
         cx="734.09"
         cy="710.09"
         r="4.8"
         fill="#D4A25C"
         opacity="0.8"
         id="circle53" />
      <circle
         cx="819"
         cy="644.93"
         r="4.8"
         fill="#D4A25C"
         opacity="0.8"
         id="circle54" />
      <circle
         cx="1229"
         cy="644.93"
         r="4.8"
         fill="#D4A25C"
         opacity="0.8"
         id="circle55" />
      <circle
         cx="1313.91"
         cy="710.09"
         r="4.8"
         fill="#D4A25C"
         opacity="0.8"
         id="circle56" />
    </g>
    <g
       id="sparkles">
      <polygon
         points="677,794 679.93,809.07 695,812 679.93,814.93 677,830 674.07,814.93 659,812 674.07,809.07"
         fill="#D4A25C"
         opacity="0.85"
         id="polygon56" />
      <polygon
         points="694,1203 696.44,1215.56 709,1218 696.44,1220.44 694,1233 691.56,1220.44 679,1218 691.56,1215.56"
         fill="#D4A25C"
         opacity="0.85"
         id="polygon57" />
      <polygon
         points="813,685 815.6,698.4 829,701 815.6,703.6 813,717 810.4,703.6 797,701 810.4,698.4"
         fill="#D4A25C"
         opacity="0.95"
         id="polygon58" />
      <polygon
         points="1390,794 1392.93,809.07 1408,812 1392.93,814.93 1390,830 1387.07,814.93 1372,812 1387.07,809.07"
         fill="#D4A25C"
         opacity="0.85"
         id="polygon59" />
      <polygon
         points="1365,1203 1367.44,1215.56 1380,1218 1367.44,1220.44 1365,1233 1362.56,1220.44 1350,1218 1362.56,1215.56"
         fill="#D4A25C"
         opacity="0.85"
         id="polygon60" />
      <polygon
         points="1235,685 1237.6,698.4 1251,701 1237.6,703.6 1235,717 1232.4,703.6 1219,701 1232.4,698.4"
         fill="#D4A25C"
         opacity="0.95"
         id="polygon61" />
      <polygon
         points="596,1001 597.46,1008.54 605,1010 597.46,1011.46 596,1019 594.54,1011.46 587,1010 594.54,1008.54"
         fill="#D4A25C"
         opacity="0.75"
         id="polygon62" />
      <polygon
         points="1452,1001 1453.46,1008.54 1461,1010 1453.46,1011.46 1452,1019 1450.54,1011.46 1443,1010 1450.54,1008.54"
         fill="#D4A25C"
         opacity="0.75"
         id="polygon63" />
    </g>
    <g
       id="flame-and-spire">
      <g
         id="left-gold">
        <path
           d="M 934 1590 C 850 1530 800 1438 798 1320 C 796 1214 846 1122 895 1019 C 936 931 955 845 956 734 C 1034 928 1006 1116 912 1260 C 987 1210 1041 1128 1064 1018 C 1055 1178 1010 1366 970 1452 C 945 1506 933 1545 934 1590 Z"
           fill="url(#emberGold)"
           id="path63" />
        <path
           d="M 855 1592 C 808 1514 782 1446 782 1367 C 782 1298 807 1247 839 1191 C 820 1312 864 1396 922 1465 C 891 1508 870 1549 855 1592 Z"
           fill="url(#deepGold)"
           opacity="0.96"
           id="path64" />
        <path
           d="M 950 1593 C 930 1496 938 1416 976 1342 C 1016 1265 1045 1178 1050 1095 C 1074 1253 1055 1398 1012 1496 C 989 1549 969 1578 950 1593 Z"
           fill="url(#goldHighlight)"
           opacity="0.92"
           id="path65" />
      </g>
      <g
         id="right-gold"
         transform="matrix(-1 0 0 1 2048 0)">
        <path
           d="M 934 1590 C 850 1530 800 1438 798 1320 C 796 1214 846 1122 895 1019 C 936 931 955 845 956 734 C 1034 928 1006 1116 912 1260 C 987 1210 1041 1128 1064 1018 C 1055 1178 1010 1366 970 1452 C 945 1506 933 1545 934 1590 Z"
           fill="url(#emberGold)"
           id="path66" />
        <path
           d="M 855 1592 C 808 1514 782 1446 782 1367 C 782 1298 807 1247 839 1191 C 820 1312 864 1396 922 1465 C 891 1508 870 1549 855 1592 Z"
           fill="url(#deepGold)"
           opacity="0.96"
           id="path67" />
        <path
           d="M 950 1593 C 930 1496 938 1416 976 1342 C 1016 1265 1045 1178 1050 1095 C 1074 1253 1055 1398 1012 1496 C 989 1549 969 1578 950 1593 Z"
           fill="url(#goldHighlight)"
           opacity="0.92"
           id="path68" />
      </g>
      <g
         id="central-spire">
        <path
           d="M 1018 522 C 1006 776 1001 1003 985 1274 C 1000 1333 1015 1412 1024 1515 C 1033 1412 1048 1333 1063 1274 C 1047 1003 1042 776 1030 522 Z"
           fill="url(#obsidianGrad)"
           id="path69" />
        <path
           d="M 1024 522 C 1026 804 1025 1110 1024 1515 C 1038 1398 1050 1335 1063 1274 C 1047 1003 1042 776 1030 522 Z"
           fill="#2B2F36"
           opacity="0.55"
           id="path70" />
        <path
           d="M 1004 1324 C 978 1364 952 1396 914 1425 C 955 1425 996 1392 1024 1344 C 1052 1392 1093 1425 1134 1425 C 1096 1396 1070 1364 1044 1324 C 1034 1340 1029 1350 1024 1360 C 1019 1350 1014 1340 1004 1324 Z"
           fill="#FAF7F2"
           opacity="0.98"
           id="path71" />
      </g>
      <g
         id="negative-cuts-left">
        <path
           d="M 886 1584 C 871 1476 878 1390 912 1315 C 944 1244 998 1195 1018 1106 C 1026 1230 995 1332 944 1417 C 909 1475 897 1535 905 1584 Z"
           fill="#FAF7F2"
           id="path72" />
        <path
           d="M 979 1589 C 958 1510 962 1444 989 1385 C 1018 1322 1045 1272 1058 1208 C 1076 1312 1062 1420 1029 1503 C 1013 1544 994 1577 979 1589 Z"
           fill="#FAF7F2"
           id="path73" />
        <path
           d="M 1024 1546 C 1006 1486 997 1421 1002 1358 C 1007 1281 1027 1196 1024 1118 C 1068 1291 1061 1436 1024 1546 Z"
           fill="#FAF7F2"
           id="path74" />
      </g>
      <g
         id="negative-cuts-right"
         transform="matrix(-1 0 0 1 2048 0)">
        <path
           d="M 886 1584 C 871 1476 878 1390 912 1315 C 944 1244 998 1195 1018 1106 C 1026 1230 995 1332 944 1417 C 909 1475 897 1535 905 1584 Z"
           fill="#FAF7F2"
           id="path75" />
        <path
           d="M 979 1589 C 958 1510 962 1444 989 1385 C 1018 1322 1045 1272 1058 1208 C 1076 1312 1062 1420 1029 1503 C 1013 1544 994 1577 979 1589 Z"
           fill="#FAF7F2"
           id="path76" />
        <path
           d="M 1024 1546 C 1006 1486 997 1421 1002 1358 C 1007 1281 1027 1196 1024 1118 C 1068 1291 1061 1436 1024 1546 Z"
           fill="#FAF7F2"
           id="path77" />
      </g>
      <g
         id="base">
        <path
           d="M 476 1618 C 657 1578 817 1582 945 1588 C 973 1562 995 1548 1024 1545 C 1053 1548 1075 1562 1103 1588 C 1231 1582 1391 1578 1572 1618 C 1361 1609 1191 1631 1024 1622 C 857 1631 687 1609 476 1618 Z"
           fill="url(#obsidianGrad)"
           id="path78" />
        <path
           d="M 603 1608 C 752 1589 873 1597 1003 1603 C 871 1620 744 1612 603 1608 Z"
           fill="#171B20"
           opacity="0.8"
           id="path79" />
        <path
           d="M 1045 1603 C 1175 1597 1296 1589 1445 1608 C 1304 1612 1177 1620 1045 1603 Z"
           fill="#171B20"
           opacity="0.8"
           id="path80" />
      </g>
    </g>
    <g
       id="top-star">
      <polygon
         points="1024,233 1036.73,315.27 1119,328 1036.73,340.73 1024,423 1011.27,340.73 929,328 1011.27,315.27"
         fill="url(#emberGold)"
         id="polygon80" />
      <circle
         cx="1024"
         cy="482"
         r="5"
         fill="#D4A25C"
         id="circle80" />
    </g>
  </g>
</svg>
